<svg id="Layer_2" data-name="Layer 2" xmlns="http://www.w3.org/2000/svg" viewBox="0 0 557.03 370.5"><defs><style>.cls-1{fill:none;}.cls-2{fill:#fff;}</style></defs><title>trainmostlyblack</title><path class="cls-1" d="M163.33,228.83a3.27,3.27,0,0,1-.16-1A3.27,3.27,0,0,0,163.33,228.83Z"/><path class="cls-1" d="M137.21,290.3c.28-.28.78-.55,1.41-1.07h0C138,289.75,137.49,290,137.21,290.3Z"/><path class="cls-1" d="M161.21,206.81h-.12c0,.31,0,.62,0,.92,0-.31,0-.62,0-.92Z"/><path class="cls-1" d="M158.51,197.33l.38,1.44-.38-1.45a8.28,8.28,0,0,0-5.87-6.23c-.11.67-.23,1.32-.35,2,.12-.65.24-1.3.35-2A8.27,8.27,0,0,1,158.51,197.33Z"/><path class="cls-1" d="M162,217.91q-.08-1.4-.19-2.79.1,1.39.19,2.79a4.3,4.3,0,0,0,1.13,2.65,5,5,0,0,1,.9,1.13,5,5,0,0,0-.9-1.13A4.3,4.3,0,0,1,162,217.91Z"/><path class="cls-1" d="M153.28,219.37c.49,2.39,1,4.78,1.55,7.16,1.59,7.07,2.53,14.28,4.14,21.34-1.6-7.07-2.55-14.28-4.14-21.34C154.3,224.15,153.77,221.76,153.28,219.37Z"/><path class="cls-1" d="M160.37,204.8h0a4,4,0,0,1-.29-.94q-.16-.82-.35-1.64.19.82.35,1.64A4,4,0,0,0,160.37,204.8Z"/><path class="cls-1" d="M151.63,197.75h0c-.1,2,.37,4.12.37,6.18h0C152,201.87,151.52,199.8,151.63,197.75Z"/><path class="cls-1" d="M161.38,279.64c-.3.13-.77-.12-1.15-.22-1.37-.35-2.79-1.17-4.09-1-5.36.73-10.68,1.74-16,2.71a28.76,28.76,0,0,0-3.43,1.08,11.87,11.87,0,0,0,1.63,2.14,11.87,11.87,0,0,1-1.63-2.14,28.76,28.76,0,0,1,3.43-1.08c5.33-1,10.65-2,16-2.71,1.29-.18,2.72.64,4.09,1,.39.1.86.34,1.15.22,1.7-.73,2.7-.06,3.22,1.24C164.08,279.59,163.08,278.91,161.38,279.64Z"/><path class="cls-1" d="M164,235.71h0c0-.44,0-.86.06-1.29C164,234.84,164,235.27,164,235.71Z"/><path class="cls-1" d="M168,332.2c-.08,3.32-.18,6.64-.33,10a38,38,0,0,1-.67,5.1,38.09,38.09,0,0,0,.67-5.1C167.78,338.84,167.88,335.52,168,332.2Z"/><path class="cls-1" d="M137.56,288.88l-3.62-1.21h0Z"/><path class="cls-1" d="M168.4,304q0,4.16,0,8.31c0,1.58,0,3.16-.07,4.74,0-1.58.06-3.16.07-4.74Q168.4,308.2,168.4,304Z"/><path class="cls-1" d="M164.61,235.16h0Z"/><path class="cls-1" d="M165.15,241.07c0-.11.09-.22.15-.34C165.24,240.85,165.2,241,165.15,241.07Z"/><path class="cls-1" d="M166.14,352.11a45.9,45.9,0,0,0,.44,15.08A46,46,0,0,1,166.14,352.11Z"/><path class="cls-1" d="M162.16,209.57l-.16-1.81h0l.16,1.81Z"/><path class="cls-1" d="M131.41,178.69c.17.5.36,1,.55,1.57h0C131.77,179.69,131.59,179.18,131.41,178.69Z"/><path class="cls-1" d="M159,247.87a80.88,80.88,0,0,0,2.72,9.52,2.62,2.62,0,0,1,.12.6,2.62,2.62,0,0,0-.12-.6A80.85,80.85,0,0,1,159,247.87Z"/><path class="cls-1" d="M164.52,223.16a3.82,3.82,0,0,1-.35,1.73c-.15.35-.31.67-.45,1,.15-.32.3-.65.45-1A3.82,3.82,0,0,0,164.52,223.16Z"/><path class="cls-1" d="M164.12,230.74a4.81,4.81,0,0,1,.1,1A4.81,4.81,0,0,0,164.12,230.74Z"/><path class="cls-1" d="M165.77,244.23c-.68-1.4-1-2.1-.65-3.1-.38,1,0,1.7.64,3.1l1.17-.39h0Z"/><path class="cls-1" d="M167.47,251.44a.27.27,0,0,0,0,.1,10.48,10.48,0,0,0,.52,1.32,10.49,10.49,0,0,1-.52-1.32A.26.26,0,0,1,167.47,251.44Z"/><path class="cls-1" d="M174.32,270.58h0c.19.4.43.79.65,1.19h0C174.74,271.37,174.51,271,174.32,270.58Z"/><path class="cls-1" d="M175.64,273.53a2.69,2.69,0,0,0-.13-.61h0a2.69,2.69,0,0,1,.13.61,2.53,2.53,0,0,0,1.16,2.06h0A2.53,2.53,0,0,1,175.64,273.53Z"/><path class="cls-1" d="M164.67,235.12c.51-.4,1-.75,1.4-1.12h0C165.66,234.37,165.18,234.72,164.67,235.12Z"/><path class="cls-1" d="M164.86,265.45a3.45,3.45,0,0,0-1.19-1.44,3.45,3.45,0,0,1,1.19,1.44,23.1,23.1,0,0,1,.6,4.19c.06.35.1.71.14,1.08,0-.36-.08-.72-.14-1.08A23.1,23.1,0,0,0,164.86,265.45Z"/><path class="cls-1" d="M161.83,258.08a4,4,0,0,1,0,.77A4,4,0,0,0,161.83,258.08Z"/><path class="cls-1" d="M161,262.29a2.84,2.84,0,0,0,1.69,1.17,4.12,4.12,0,0,1,1,.55,4.13,4.13,0,0,0-1-.55A2.84,2.84,0,0,1,161,262.29Z"/><path class="cls-1" d="M173.21,282.73a2.93,2.93,0,0,0,2-2.75c.05-.51.14-1,.23-1.51-.09.5-.18,1-.23,1.51A2.93,2.93,0,0,1,173.21,282.73Z"/><path class="cls-1" d="M176.17,276.42l.25,0,.06.42-.06-.42Z"/><path class="cls-1" d="M166.86,276.49a5.3,5.3,0,0,0,1.2,1.28c.34.26.68.51,1,.77-.32-.26-.66-.51-1-.77A5.3,5.3,0,0,1,166.86,276.49Z"/><path class="cls-1" d="M119.58,217.5a83.92,83.92,0,0,1-4.12-8.56q-4.25-10.1-8.45-20.22h0q4.22,10.11,8.44,20.22A84,84,0,0,0,119.58,217.5Z"/><path class="cls-1" d="M138.69,284.66l.11.09Z"/><path class="cls-1" d="M130.51,182.48h0c-10.62-.4-16.13,9.39-17.79,17.25h0C114.37,191.87,119.89,182.08,130.51,182.48Z"/><path class="cls-1" d="M104.77,214.1l-.42-.2.42.2Z"/><path class="cls-1" d="M154.81,265.94l0-.32h0l0,.32h-32v0Z"/><path class="cls-1" d="M124.14,263.89h0V264h0Z"/><path class="cls-1" d="M139.7,237.45l.36.47Z"/><path class="cls-1" d="M139.29,236.94l.29.34Z"/><path class="cls-1" d="M104.22,213.85h0l-3.32,6.92.53.25h0l-.53-.25Z"/><path class="cls-1" d="M138.85,236.49c.09.08.19.16.28.25C139,236.65,138.94,236.57,138.85,236.49Z"/><path class="cls-1" d="M140.38,238.33a8.69,8.69,0,0,1-.92,0A8.27,8.27,0,0,0,140.38,238.33Z"/><path class="cls-1" d="M106.78,209.33h0l.72.37.94-2.07-.94,2.07Z"/><path class="cls-1" d="M174.69,270.53l-.24.08h0l.24-.08Z"/><path class="cls-1" d="M109.26,196.1c-.64-1.91-1.26-3.82-1.81-5.76C108,192.28,108.63,194.2,109.26,196.1Z"/><path class="cls-1" d="M149.11,324.72l1.6-1.06-1.61,1.06Z"/><path class="cls-1" d="M149.43,330.39l.06.3h0l-.06-.3,1.69-.72-.06-.07.06.07Z"/><path class="cls-1" d="M149.94,337.65h0l-.18-.57,1.07-.47-1.07.47Z"/><path class="cls-1" d="M148.43,326.74h0l-.08-.3,3.59-1.25h0l-3.59,1.25Z"/><path class="cls-1" d="M148.09,334.84c0,.09,0,.18,0,.27h0c0-.09,0-.18,0-.27l5.18-1.75-.24-.83h0l.24.83Z"/><path class="cls-1" d="M149.13,332.26h0l-.06-.39,5.62-1.45h0l-5.62,1.45Z"/><path class="cls-1" d="M144,316.4h0l0-.39h0Z"/><path class="cls-1" d="M133.78,234.19c1.79,1.31,3.59,2.61,5.32,4a.72.72,0,0,0,.28.12.71.71,0,0,1-.28-.12C137.37,236.8,135.57,235.5,133.78,234.19Z"/><path class="cls-1" d="M147.28,323.51h0a4.86,4.86,0,0,0,1.35-1.1A4.86,4.86,0,0,1,147.28,323.51Z"/><path class="cls-1" d="M152.89,326.5h0a.83.83,0,0,1,0,.25A.83.83,0,0,0,152.89,326.5Z"/><path class="cls-1" d="M152.94,326.8a.47.47,0,0,1-.06.2A.47.47,0,0,0,152.94,326.8Z"/><path class="cls-1" d="M146.46,286.09h0l-6.84.86Z"/><path class="cls-1" d="M142.21,285.45c1,.12,2,.3,3.13.48C144.21,285.74,143.18,285.56,142.21,285.45Z"/><path class="cls-1" d="M153.74,337.65h0a7.68,7.68,0,0,1-.49.64A7.66,7.66,0,0,0,153.74,337.65Z"/><path class="cls-1" d="M152.87,327a.54.54,0,0,1-.11.11A.54.54,0,0,0,152.87,327Z"/><path class="cls-1" d="M152.71,327.21c-.49.34-1.62.28-2.18.55C151.09,327.48,152.21,327.54,152.71,327.21Z"/><path class="cls-1" d="M145.2,315.85l.61-.08c0-.32.05-.65.06-1,0,.31-.06.64-.06,1Z"/><path class="cls-1" d="M136.43,188.52a3.85,3.85,0,0,1-.5-.35A3.84,3.84,0,0,0,136.43,188.52Z"/><path class="cls-1" d="M141.17,188.26l.23-.1h0Z"/><path class="cls-1" d="M141.4,188.15l-3.71-1,3.71,1Z"/><path class="cls-1" d="M139.26,188.92l-.25,0Z"/><path class="cls-1" d="M138.25,189c-.1,0-.19,0-.29,0C138.05,189,138.15,189,138.25,189Z"/><path class="cls-1" d="M137.3,188.86a3.94,3.94,0,0,1-.37-.14A3.94,3.94,0,0,0,137.3,188.86Z"/><path class="cls-1" d="M135.67,188a4.41,4.41,0,0,1-1.13-1.64h0A4.41,4.41,0,0,0,135.67,188Z"/><path class="cls-1" d="M145.23,176.45l-.1,0Z"/><path class="cls-1" d="M144.63,176.16l.35.17-.35-.17Z"/><path class="cls-1" d="M148.65,140.35c.06.1.12.2.17.32C148.76,140.55,148.71,140.45,148.65,140.35Z"/><path class="cls-1" d="M139.18,155.56h0c.09.1.07.31.09.47s0,.47.09.7c0-.23-.07-.47-.09-.7S139.27,155.66,139.18,155.56Z"/><path class="cls-1" d="M155.23,161.2v0Z"/><path class="cls-1" d="M155.43,158.92l.08.13Z"/><path class="cls-1" d="M140.32,188.64l-.25.07Z"/><path class="cls-1" d="M148.42,239.9l-.12.24h0Z"/><path class="cls-1" d="M147.44,228.07l.75-.11h0l-.75.11v10.06h0Z"/><path class="cls-1" d="M142.9,237.25l-1.57-.45-.17.51h0l.17-.51Z"/><path class="cls-1" d="M145.3,234.87h0L146,236Z"/><path class="cls-1" d="M142.82,241c-.19,1.77-.48,3.45-.68,5.08.2-1.63.49-3.31.68-5.08Z"/><path class="cls-1" d="M143.71,241.18l2.4.42Z"/><path class="cls-1" d="M139.93,167.28a6.3,6.3,0,0,0,1-3.6,6.3,6.3,0,0,1-1,3.6c-.17.27.06.78.08,1.18a10,10,0,0,0,1.05,4.31,10,10,0,0,1-1.05-4.31C140,168.06,139.76,167.55,139.93,167.28Z"/><path class="cls-1" d="M144.71,240.55l2.3,1.21h0Z"/><path class="cls-1" d="M149.62,232.29c.17.53.35,1.06.5,1.59,1.53,5.37,3.05,10.74,4.44,16.15a5.81,5.81,0,0,1,.13.81,5.83,5.83,0,0,0-.13-.81c-1.39-5.41-2.91-10.78-4.44-16.15C150,233.35,149.79,232.82,149.62,232.29Z"/><path class="cls-1" d="M153.36,257.89h0l-.53-2.46h0Z"/><path class="cls-1" d="M149.52,260.61v-.16h0Z"/><path class="cls-1" d="M151.65,258.74l1.1-.55-1.1.55Z"/><path class="cls-1" d="M124.73,160.92h0l1.17.63Z"/><path class="cls-1" d="M118.45,189.07c-.13.16-.26.32-.38.49C118.19,189.38,118.32,189.23,118.45,189.07Z"/><path class="cls-1" d="M119.06,188.32a15.08,15.08,0,0,1,1.33-1.33A15.08,15.08,0,0,0,119.06,188.32Z"/><path class="cls-1" d="M136.47,185.63l-1.57-2.4,1.56,2.4Z"/><path class="cls-1" d="M142.44,184.83a1.66,1.66,0,0,0-.09.16A1.67,1.67,0,0,1,142.44,184.83Z"/><path class="cls-1" d="M143.63,188.25h0l-.67,0Z"/><path class="cls-1" d="M152.6,169a2.36,2.36,0,0,0-.66-.82h0A2.36,2.36,0,0,1,152.6,169Z"/><path class="cls-1" d="M142.62,184.57c.77-.94,2.47-1.47,3.42-2.43h0C145.1,183.1,143.39,183.63,142.62,184.57Z"/><path class="cls-1" d="M143.65,181.06l-.41-.19.12-1.84-.12,1.84Z"/><path class="cls-1" d="M134.88,181.17l-.89.66h0l.89-.66,6.56,7h0Z"/><path class="cls-1" d="M130.59,175.76s0,.06,0,.08,0,.15.06.23c0-.08,0-.15-.06-.23S130.56,175.79,130.59,175.76Z"/><path class="cls-1" d="M127.82,178.54l.13.18-.13-.18Z"/><path class="cls-1" d="M141.45,188.14l.94,0-.94,0Z"/><path class="cls-1" d="M133.28,184.55a17.85,17.85,0,0,1,1.71.66,4.29,4.29,0,0,0,.8.25,4.31,4.31,0,0,1-.8-.25A17.85,17.85,0,0,0,133.28,184.55Z"/><path class="cls-1" d="M151,152.26a11.45,11.45,0,0,1-.68-4.49,10.38,10.38,0,0,0-.12-1.9,10.35,10.35,0,0,1,.11,1.9A11.46,11.46,0,0,0,151,152.26Z"/><path class="cls-1" d="M148.59,140.24c-.86-1.41-2.05-1.09-4.77.44a2.25,2.25,0,0,0-.36.27,2.24,2.24,0,0,1,.36-.27C146.54,139.15,147.73,138.83,148.59,140.24Z"/><path class="cls-1" d="M142.59,142c-.22.36-.41.73-.59,1.08a6.79,6.79,0,0,0-.49,1.4,6.8,6.8,0,0,1,.49-1.4C142.18,142.78,142.37,142.4,142.59,142Z"/><path class="cls-1" d="M153.29,164.2a2.55,2.55,0,0,1,.42-1.16c.61-.71,1.08-1.25,1.42-1.71-.34.46-.81,1-1.42,1.71A2.54,2.54,0,0,0,153.29,164.2Z"/><path class="cls-1" d="M125.79,157.49h0l.45,4.23h0Z"/><path class="cls-1" d="M141,145.84a3.88,3.88,0,0,0,.27-.61,3.87,3.87,0,0,1-.27.61c-1.59,2.86-5,5.33-2.45,9C136,151.17,139.44,148.7,141,145.84Z"/><path class="cls-1" d="M155.23,158.61a21.35,21.35,0,0,0-1.39-1.71l-.27-.33.27.33A21.35,21.35,0,0,1,155.23,158.61Z"/><path class="cls-1" d="M147.2,258.55l-1.24.52Z"/><path class="cls-1" d="M127.16,161.25a2.85,2.85,0,0,1-.52-2.48,1.44,1.44,0,0,0,0-.21,1.44,1.44,0,0,1,0,.21A2.85,2.85,0,0,0,127.16,161.25Z"/><path class="cls-1" d="M128.78,162.16a3,3,0,0,1,1.79,1.26,4,4,0,0,1,.33,1.21,4,4,0,0,0-.33-1.21,3,3,0,0,0-1.79-1.26,3.39,3.39,0,0,1-1.55-.82A3.39,3.39,0,0,0,128.78,162.16Z"/><path class="cls-1" d="M131.1,166.21c0-.28-.08-.57-.11-.86,0,.29.06.58.11.86Z"/><path class="cls-1" d="M126.67,163.48l-.31-.24Z"/><path class="cls-1" d="M152.66,166.17l-.43,1.21Z"/><path class="cls-1" d="M143.89,264.56c3.58-.52,7.2-1.21,10.88-.73l0,.74h0q0-.37,0-.74C151.09,263.35,147.46,264,143.89,264.56Z"/><path class="cls-1" d="M142.25,262.29a6.49,6.49,0,0,0,1.06-.15,6.44,6.44,0,0,1-1.06.15Z"/><path class="cls-1" d="M113.89,369l-1.7-.92Z"/><path class="cls-1" d="M112.12,368.07h0c.12-.18.25-.36.39-.53C112.37,367.72,112.23,367.89,112.12,368.07Z"/><path class="cls-1" d="M114.4,357.59c0-.44-.76-.88-1.6-1.77h0c.83.89,1.59,1.32,1.6,1.76a44,44,0,0,1-.29,7.31,2.21,2.21,0,0,1-.08.31,2.21,2.21,0,0,0,.08-.31A44,44,0,0,0,114.4,357.59Z"/><path class="cls-1" d="M119.69,358.18a29.81,29.81,0,0,1,.43,5.62,29.82,29.82,0,0,0-.43-5.62c-.25-1.48-.85-2.46-2.33-2.55h0C118.84,355.72,119.44,356.7,119.69,358.18Z"/><path class="cls-1" d="M171.4,264.71c.07-3.75-1.18-7.13-2.72-10.44,1.54,3.3,2.79,6.69,2.72,10.44,0,2.51,1.38,4.21,2.93,5.87h0C172.77,268.92,171.35,267.22,171.4,264.71Z"/><path class="cls-1" d="M153.82,259.8l-.87-.43.87.43Z"/><path class="cls-1" d="M153.66,260.45l0-.16,0,.16Z"/><path class="cls-1" d="M154.34,256.83h0l-.78-.72Z"/><path d="M179.24,233.17a6.09,6.09,0,0,1,1.92.3v-1a6.61,6.61,0,0,1-4.51.18,6.2,6.2,0,0,1,.3,1A5.89,5.89,0,0,1,179.24,233.17Z"/><path d="M166.59,232.35c-3.13-2-3.35-7-.68-9.37a5.73,5.73,0,0,1-.4-.78c-3.44-1.36-4.24-5.88-2.42-8.72a6.34,6.34,0,0,1-.93-3.91l-.16-1.81a5.2,5.2,0,0,1-.79-.95h-.12c0,.31,0,.62,0,.92a4.56,4.56,0,0,0,0,.91c.37,2.15.59,4.31.75,6.47q.1,1.39.19,2.79a4.3,4.3,0,0,0,1.13,2.65,5,5,0,0,1,.9,1.13,3.28,3.28,0,0,1,.45,1.47,3.82,3.82,0,0,1-.35,1.73c-.15.35-.31.67-.45,1a5,5,0,0,0-.54,2,3.27,3.27,0,0,0,.16,1,4.4,4.4,0,0,0,.49,1.08,2.49,2.49,0,0,1,.3.82,4.81,4.81,0,0,1,.1,1c0,.81-.12,1.74-.19,2.72,0,.42-.06.85-.06,1.29.21-.19.43-.37.64-.54h0l.06,0c.51-.4,1-.75,1.4-1.12A6.23,6.23,0,0,1,166.59,232.35Z"/><polygon points="181.53 194.91 181.53 194.91 181.53 194.91 181.53 194.91"/><path class="cls-2" d="M181.77,250.56l-.12-.15-.15.17Z"/><path class="cls-2" d="M162.45,208.12a5,5,0,0,1-.45-.37l.16,1.81A6.49,6.49,0,0,1,162.45,208.12Z"/><path class="cls-2" d="M176.8,275.59a2.53,2.53,0,0,1-1.16-2.06,2.69,2.69,0,0,0-.13-.61,5.85,5.85,0,0,1-.54-1.16c-.22-.4-.46-.79-.65-1.19h0c-1.55-1.67-3-3.36-2.93-5.87.07-3.75-1.18-7.13-2.72-10.44q-.33-.71-.67-1.41a10.48,10.48,0,0,1-.52-1.32.27.27,0,0,1,0-.1c0-.1.06-.19,0-.14l1.49-.08a5.47,5.47,0,0,1-1.77-2.68h-.94a4.28,4.28,0,0,1,.73-.88,6.67,6.67,0,0,1,.08-2.48,6.61,6.61,0,0,1-.16-1.35l-1.17.39c-.68-1.4-1-2.1-.64-3.1l0-.06c0-.11.09-.22.15-.34a14.8,14.8,0,0,1,1.63-2.28,6.4,6.4,0,0,1-.86-4.45c-.42.37-.9.72-1.4,1.12l-.06,0h0c-.21.17-.43.35-.64.54h0c0-.44,0-.86.06-1.29.07-1,.19-1.91.19-2.72a4.81,4.81,0,0,0-.1-1,2.49,2.49,0,0,0-.3-.82,4.4,4.4,0,0,1-.49-1.08,3.27,3.27,0,0,1-.16-1,5,5,0,0,1,.54-2c.15-.32.3-.65.45-1a3.82,3.82,0,0,0,.35-1.73,3.28,3.28,0,0,0-.45-1.47,5,5,0,0,0-.9-1.13,4.3,4.3,0,0,1-1.13-2.65q-.08-1.4-.19-2.79c-.16-2.17-.38-4.33-.75-6.47a4.56,4.56,0,0,1,0-.91c0-.31,0-.62,0-.92h.12a6,6,0,0,1-.84-2,4,4,0,0,1-.29-.94q-.16-.82-.35-1.64c-.26-1.15-.56-2.3-.85-3.44l-.38-1.44a8.27,8.27,0,0,0-5.87-6.22c-.11.67-.23,1.32-.35,2a35,35,0,0,0-.66,4.67h0c-.1,2,.37,4.12.37,6.18h0c0,2.22-.67,4.5-.34,6.64.46,2.95,1,5.88,1.62,8.8.49,2.39,1,4.78,1.55,7.16,1.59,7.07,2.53,14.28,4.14,21.34a80.85,80.85,0,0,0,2.72,9.52,2.62,2.62,0,0,1,.12.6s0,.06,0,.09a4,4,0,0,1,0,.77,3.91,3.91,0,0,1-.44,1.42,3.94,3.94,0,0,0-.47,1.16,1.35,1.35,0,0,0,.08.86,2.84,2.84,0,0,0,1.69,1.16,4.13,4.13,0,0,1,1,.55,3.45,3.45,0,0,1,1.19,1.44,23.1,23.1,0,0,1,.6,4.19c.06.35.1.71.14,1.08.19,2,.15,4.09,1.27,5.77a5.3,5.3,0,0,0,1.2,1.28c.34.26.68.51,1,.77a3.56,3.56,0,0,1,1.62,3.17c0,.33.84.9,1.37,1a2.46,2.46,0,0,0,1.16,0,2.93,2.93,0,0,0,2-2.75c.05-.51.14-1,.23-1.51.12-.7.26-1.41.38-2.11l.38.07.25,0,.06.42.07.51A6.58,6.58,0,0,1,176.8,275.59Z"/><path class="cls-2" d="M152.94,349.48c0,.64.07,1.27.09,1.91.12,3.59.12,7.18.38,10.76.2,2.79.48,5.57.78,8.35h13c-.09-.67-.2-1.33-.34-2-.1-.44-.18-.88-.26-1.33a45.9,45.9,0,0,1-.44-15.08c0-.25.06-.5.1-.75.21-1.37.48-2.74.73-4.1a38,38,0,0,0,.67-5.1c.15-3.32.25-6.64.33-10,.12-4.66.2-9.33.31-14,0-.37,0-.74,0-1.11,0-1.58.06-3.16.07-4.74q0-4.16,0-8.31c0-.64,0-1.29,0-1.93a9.21,9.21,0,0,0-.2-1.83c-.43-2.08-1.39-4.19-1.23-6.22.34-4.45-1.09-8.47-2.19-12.6a5.12,5.12,0,0,0-.19-.59c-.52-1.3-1.52-2-3.22-1.24-.3.13-.77-.12-1.15-.22-1.37-.35-2.79-1.17-4.09-1-5.36.73-10.68,1.74-16,2.71a28.76,28.76,0,0,0-3.43,1.08,11.87,11.87,0,0,0,1.63,2.14,4,4,0,0,0,.36.29l.11.09a3.41,3.41,0,0,0,1.86.57c.51,0,1,.07,1.55.13,1,.12,2,.3,3.13.48l1.12.17h0l-6.84.86-5.69.72h0l3.62,1.21,1.06.35h0c-.63.52-1.13.79-1.41,1.07a.89.89,0,0,0-.21.3c-.55,1.4-1.7,3.15-1.27,4.24,1.15,2.9,3.08,5.48,4.55,8.27,1.92,3.64,3.71,7.34,5.49,11a1.39,1.39,0,0,1,.09.66c0,.31-.06.64-.06,1l-.61.08-1.15.16h0l0,.39h0l4.79,1.21c.2,1.58,1.05,3.27-.19,4.8a4.86,4.86,0,0,1-1.35,1.1h0l4-.22-.55.37-1.6,1.06h0l2.84.47h0l-3.59,1.25.08.3h0l4.46-.25h0a.83.83,0,0,1,0,.25s0,0,0,.05a.47.47,0,0,1-.06.2v0a.54.54,0,0,1-.11.11l-.06.06c-.49.34-1.62.28-2.18.55s-.52.7.53,1.84l.06.07-1.69.72.06.3h0l5.2-.27h0l-5.62,1.45.06.39H153l.24.83-5.18,1.75c0,.09,0,.18,0,.27h6.22l-3.46,1.51-1.07.47.18.57h3.79a7.66,7.66,0,0,1-.49.64,2.38,2.38,0,0,0-.56.94.75.75,0,0,0,0,.14C152.68,342.74,152.83,346.11,152.94,349.48Z"/><path class="cls-2" d="M120.12,363.8a29.81,29.81,0,0,0-.43-5.62c-.25-1.48-.85-2.46-2.33-2.55h-.53c-1.19,0-2.43.12-4,.2h0c.83.89,1.59,1.32,1.6,1.77a44,44,0,0,1-.29,7.31,2.21,2.21,0,0,1-.08.31,8.52,8.52,0,0,1-1.53,2.33c-.13.18-.27.35-.39.53h0l.07,0,1.7.92.3.16h0l-3,1.31h7.72A21.91,21.91,0,0,0,120.12,363.8Z"/><path class="cls-2" d="M138.58,154.81a8.29,8.29,0,0,0,.6.74h0c.09.1.07.31.09.47s0,.47.09.7c.37,2.33,1.53,4.61,1.58,7a6.3,6.3,0,0,1-1,3.6c-.17.27.06.78.08,1.18a10,10,0,0,0,1.05,4.31,8.09,8.09,0,0,0,3.57,3.39h0l.35.17.15.07.1,0c2.38,1.08,3.8.6,4.71-2.29a4.38,4.38,0,0,1,1.17-2.24c1.45-1,1.88-2,1.49-2.88a2.36,2.36,0,0,0-.66-.82h0l.3-.84.43-1.21c.17-.49.33-.94.48-1.4a4.74,4.74,0,0,0,.14-.57,2.54,2.54,0,0,1,.42-1.16c.61-.71,1.08-1.25,1.42-1.71l.08-.11v0a1.79,1.79,0,0,0,.28-2.15l-.08-.13-.2-.32a21.35,21.35,0,0,0-1.39-1.71l-.27-.33a14.44,14.44,0,0,1-2.56-4.3,11.46,11.46,0,0,1-.68-4.49,10.35,10.35,0,0,0-.11-1.9,22,22,0,0,0-.54-2.59,16.17,16.17,0,0,0-.86-2.61c-.06-.12-.11-.22-.17-.32l-.06-.11c-.86-1.41-2.05-1.09-4.77.44a2.24,2.24,0,0,0-.36.27,4.57,4.57,0,0,0-.87,1.09c-.22.36-.41.73-.59,1.08a6.8,6.8,0,0,0-.49,1.4c-.06.24-.13.47-.21.7a3.88,3.88,0,0,1-.27.61C139.44,148.7,136,151.17,138.58,154.81Zm13.91,3.59.64.5-3.05,3.52C149.91,160,150.85,158.95,152.5,158.4Z"/><path class="cls-2" d="M150.12,233.88c-.15-.53-.33-1.06-.5-1.59-.46-1.45-1-2.89-1.43-4.34h0l-.75.11v10.06h0L146,236l-.74-1.12h0l-.88,2.82-1.52-.44-1.56-.45-.17.51h0l7.28,2.54,0,0-.12.24h0l-7.59-1.68,4,2.1,2.3,1.21h0l-.91-.16-2.4-.42-.88-.16h0c-.19,1.77-.48,3.45-.68,5.08a22.45,22.45,0,0,0-.19,3.8c.16,3.31.54,6.75,3.22,9.5l.79-.34,1.24-.52.79-.34.25.48-6,3.6h0a6.44,6.44,0,0,0,1.06-.15,11.41,11.41,0,0,0,1.19-.34c.73-.25,1.45-.54,2.2-.82.2,1.57,4,2.13,7.51,1.26l.16-.69-4.87-.71v-.39h4.13l0-.16.12-.49h0l-.87-.43-1.29-.63h0l1.1-.55.6-.3h0l-.53-2.46h0l.73.68.78.72h0c.12-.93.31-1.87.34-2.8a23.14,23.14,0,0,0,0-3.19,5.81,5.81,0,0,0-.13-.81C153.17,244.63,151.65,239.26,150.12,233.88Zm-1.76,7.73.57-.28,2.33,6.83-.53.19Z"/><path class="cls-2" d="M140.44,238.39l.27.06-.21-.11Z"/><path class="cls-2" d="M141.44,188.14h0l.05,0,0,0h0Z"/><path class="cls-2" d="M112.72,199.73h0c1.67-3.32,2.9-6.28,4.55-9q.38-.63.8-1.2c.12-.17.25-.32.38-.49s.4-.51.61-.75a15.08,15.08,0,0,1,1.33-1.33,12.57,12.57,0,0,1,12.9-2.43,17.85,17.85,0,0,1,1.71.66,4.31,4.31,0,0,0,.8.25l.68.16h0l-1.56-2.4-.92-1.41h0l.89-.66,6.57,7,.94,0,.57,0,.67,0h0c-1.36-1.52-1.6-2.51-1.28-3.25a1.66,1.66,0,0,1,.09-.16,1.93,1.93,0,0,1,.18-.27c.77-.94,2.47-1.47,3.42-2.43h0l-2.4-1.08-.41-.19.12-1.84.1-1.5c-1.53,0-2.94-.36-4.06.07-3.22,1.23-5.53.52-6.86-2.85a18.56,18.56,0,0,0-1.95,1s0,.06,0,.08,0,.15.06.23a25.59,25.59,0,0,0,.81,2.62c.17.5.36,1,.55,1.57h0L128.38,178l-.56.57h0l.13.18,2.56,3.75h0C119.89,182.08,114.37,191.87,112.72,199.73Z"/><path class="cls-2" d="M133.78,234.19c1.79,1.31,3.59,2.61,5.32,4a.71.71,0,0,0,.28.12h.07a8.69,8.69,0,0,0,.92,0h0l-.33-.41-.36-.47-.13-.17-.29-.34-.16-.19c-.09-.09-.18-.17-.28-.25s-.14-.14-.22-.2c-3.38-2.52-7.05-4.69-10.19-7.46a42.81,42.81,0,0,1-8.86-11.33,84,84,0,0,1-4.12-8.56q-4.25-10.1-8.44-20.22h0c.13.55.29,1.09.44,1.63.54,1.94,1.17,3.85,1.81,5.76.21.63.42,1.26.63,1.89.45,1.38.7,2.83,1,4.25.83,1.4,1.72,2.76,2.46,4.2,2.55,5,4.87,10.06,7.61,14.92C124.09,226.85,128.88,230.58,133.78,234.19Z"/><path class="cls-2" d="M110.92,202.25h0l0-.05Z"/><path class="cls-2" d="M140.5,238.34h-.11l0,.06Z"/><polygon class="cls-2" points="110.89 202.19 110.89 202.19 110.89 202.19 110.89 202.19"/><path class="cls-2" d="M154.81,265.94l0-.32H122.85v.32Z"/><path class="cls-2" d="M126.67,163.48c.67.53,1.34,1.05,2,1.55a15.71,15.71,0,0,0,2.4,1.18h0c0-.28-.08-.57-.11-.86s-.05-.48-.09-.72a4,4,0,0,0-.33-1.21,3,3,0,0,0-1.79-1.26,3.39,3.39,0,0,1-1.55-.82l-.07-.08a2.85,2.85,0,0,1-.52-2.48,1.44,1.44,0,0,0,0-.21,9,9,0,0,0-.16-1.17l-.7.09h0l.45,4.23h0l-.34-.18-1.17-.63h0l-.49.64,2.12,1.69Z"/><path class="cls-2" d="M143.89,264.56H154.8l0-.74C151.09,263.35,147.46,264,143.89,264.56Z"/><path class="cls-2" d="M141.4,188.15l.08,0,0,0h0Z"/><path class="cls-2" d="M135.93,188.18a3.85,3.85,0,0,0,.5.35,200.56,200.56,0,0,0,.87.33,4.37,4.37,0,0,0,.66.09c.1,0,.19,0,.29,0a5.14,5.14,0,0,0,.76-.05l.25,0a6.21,6.21,0,0,0,.82-.21l.25-.07a7.57,7.57,0,0,0,.85-.38l.23-.1-3.71-1-3.15-.82h0a4.41,4.41,0,0,0,1.13,1.64C135.75,188.07,135.85,188.11,135.93,188.18Z"/><path class="cls-2" d="M137.39,263.89H124.14V264h13.26Z"/><path class="cls-2" d="M104.34,213.9l-.12-.06h0l-3.32,6.92.53.25h0l3.34-6.91h0Z"/><path class="cls-2" d="M106.78,209.33l.72.37.94-2.07,2.19-4.84-3.84,6.54Z"/><path class="cls-2" d="M110.89,202.19h0l-.27.6.31-.53h0l0-.06Z"/><path d="M174.32,270.58c.19.4.43.79.65,1.19a6.39,6.39,0,0,1-.26-1.09l-.26-.07-.07,0Z"/><path d="M175.51,272.93a2.69,2.69,0,0,1,.13.61,2.53,2.53,0,0,0,1.16,2.06,6.07,6.07,0,0,1,.36-1A5.11,5.11,0,0,1,175.51,272.93Z"/><path d="M165.77,244.23l1.17-.39a6.14,6.14,0,0,1,1.32-4,5.12,5.12,0,0,1-1.33-1.42,14.8,14.8,0,0,0-1.63,2.28c-.06.12-.11.23-.15.34l0,.06C164.75,242.13,165.09,242.83,165.77,244.23Z"/><path d="M167,247.66a4.28,4.28,0,0,0-.73.88h.94A6.41,6.41,0,0,1,167,247.66Z"/><path d="M150.08,162.43l3.05-3.52-.64-.5C150.85,158.95,149.91,160,150.08,162.43Z"/><path d="M151.26,248.15l-2.33-6.83-.57.28,2.38,6.73Z"/><path class="cls-2" d="M174.32,270.58l.06.06.07,0-.13,0h0Z"/><path class="cls-2" d="M174.69,270.53l-.24.08h0l.26.07S174.7,270.58,174.69,270.53Z"/><path d="M164.35,197.62l-.05.17.1,0Z"/><path d="M171.9,204.36q.21-1.79.51-3.58a5.26,5.26,0,0,1-1.39.52,6.61,6.61,0,0,1,.26,3h.27Z"/><path d="M165.79,197.62a5.25,5.25,0,0,1,5.23,3.69,5.26,5.26,0,0,0,1.39-.52c.16-1,.32-1.93.52-2.89a5.37,5.37,0,0,1,1.28-2.61,6.73,6.73,0,0,1-4.27-5.34l-.31,0c-4.55,0-6.31,4.34-5.28,7.69l0,.15A6.31,6.31,0,0,1,165.79,197.62Z"/><path d="M171.71,206c.05-.53.12-1.07.19-1.6l-.35,0h-.27a6.42,6.42,0,0,1-.23,1A5,5,0,0,1,171.71,206Z"/><path d="M162.16,209.57a6.34,6.34,0,0,0,.93,3.91,5.18,5.18,0,0,1,4.23-2.39,5.52,5.52,0,0,1,3.27-1,6.58,6.58,0,0,1,.84.06c.06-1.4.15-2.8.28-4.2a5,5,0,0,0-.67-.6,5.26,5.26,0,0,1-5.26,3.78,5.51,5.51,0,0,1-3.34-1,6.49,6.49,0,0,0-.29,1.44Z"/><path d="M161.21,206.81h0a5.2,5.2,0,0,0,.79.95h0a5,5,0,0,0,.45.37,5.51,5.51,0,0,0,3.34,1,5.26,5.26,0,0,0,5.26-3.78,6.42,6.42,0,0,0,.23-1,6.61,6.61,0,0,0-.26-3,5.25,5.25,0,0,0-5.23-3.69,6.31,6.31,0,0,0-1.39.15l-.1,0c-3.24.79-4.55,4.14-3.93,7h0A6,6,0,0,0,161.21,206.81Z"/><path d="M170.79,221.75l.28.06a6,6,0,0,1,.8-.13l0-.15a6.28,6.28,0,0,1-.87.1Z"/><path d="M166.55,222.49a5.51,5.51,0,0,1-1-.3,5.73,5.73,0,0,0,.4.78A5,5,0,0,1,166.55,222.49Z"/><path d="M167.32,211.09l.38,0a5.41,5.41,0,0,1,3.67,1.3c0-.73,0-1.47.05-2.2a6.58,6.58,0,0,0-.84-.06A5.52,5.52,0,0,0,167.32,211.09Z"/><path d="M171,221.62a6.28,6.28,0,0,0,.87-.1c0-.2-.05-.4-.07-.61A5,5,0,0,1,171,221.62Z"/><path d="M167.71,211.07l-.38,0a5.18,5.18,0,0,0-4.23,2.39c-1.82,2.85-1,7.37,2.42,8.72a5.51,5.51,0,0,0,1,.3,5.58,5.58,0,0,1,3.08-.85,6.43,6.43,0,0,1,1.16.11l.19-.13a5,5,0,0,0,.8-.71,73.35,73.35,0,0,1-.4-8.54A5.41,5.41,0,0,0,167.71,211.07Z"/><path d="M171.92,222.08c0-.14,0-.27-.06-.41a6,6,0,0,0-.8.13A5.4,5.4,0,0,1,171.92,222.08Z"/><path d="M170.79,221.75a6.43,6.43,0,0,0-1.16-.11,5.58,5.58,0,0,0-3.08.85,5,5,0,0,0-.64.49c-2.67,2.41-2.45,7.4.68,9.37a5.23,5.23,0,0,1,5-3,6.15,6.15,0,0,1,1.73.24,5,5,0,0,1-.23-.72c-.49-2.26-.85-4.51-1.12-6.77a5.4,5.4,0,0,0-.85-.27Z"/><path d="M168.27,239.87a5.28,5.28,0,0,1,4.25-1.89l.52,0a5.06,5.06,0,0,1,.9-.89,5.28,5.28,0,0,1,3-3.5,6.2,6.2,0,0,0-.3-1,5.17,5.17,0,0,1-3.37-3.08,6.15,6.15,0,0,0-1.73-.24,5.23,5.23,0,0,0-5,3,6.23,6.23,0,0,0-.52,1.65h0a6.4,6.4,0,0,0,.86,4.45A5.12,5.12,0,0,0,168.27,239.87Z"/><path d="M176.95,233.61a5.28,5.28,0,0,0-3,3.5,5.5,5.5,0,0,1,3.38-1.06,5.59,5.59,0,0,1,3.08.85,6.33,6.33,0,0,1,.76-2.94v-.5a6.09,6.09,0,0,0-1.92-.3A5.89,5.89,0,0,0,176.95,233.61Z"/><path d="M180.4,236.91a5.59,5.59,0,0,0-3.08-.85,5.5,5.5,0,0,0-3.38,1.06,5.06,5.06,0,0,0-.9.89,5.16,5.16,0,0,1,4.38,2.86,5.83,5.83,0,0,1,4,1.69c.09.09.18.18.27.28l.09-.12a5.75,5.75,0,0,1-.59-2.61v0A6.35,6.35,0,0,1,180.4,236.91Z"/><path d="M177.4,240.86a6.43,6.43,0,0,1,.66,3.32c2,3,.94,8-3.13,9a4.63,4.63,0,0,0,1.42.17,6,6,0,0,0,4.08-1.69l1-1,.11-.12.15-.17a6.36,6.36,0,0,1,0-7.58c-.09-.1-.17-.19-.27-.28A5.83,5.83,0,0,0,177.4,240.86Z"/><path d="M178.06,244.18a6.58,6.58,0,0,1-.14,1c.73,3.27-1.07,7.21-5.41,7.21a5.5,5.5,0,0,1-3.38-1.06,5.27,5.27,0,0,0,4.35,2,6.26,6.26,0,0,0,1.46-.17C179,252.21,180,247.21,178.06,244.18Z"/><path d="M169.13,251.33a5.5,5.5,0,0,0,3.38,1.06c4.34,0,6.14-3.94,5.41-7.21a5.54,5.54,0,0,1-10.81,0,6.67,6.67,0,0,0-.08,2.48,6.41,6.41,0,0,0,.21.88,5.47,5.47,0,0,0,1.77,2.68Z"/><path d="M172.51,249.5a5.3,5.3,0,0,0,5.41-4.33,6.58,6.58,0,0,0,.14-1,6.43,6.43,0,0,0-.66-3.32A5.16,5.16,0,0,0,173,238l-.52,0a5.28,5.28,0,0,0-4.25,1.89,6.14,6.14,0,0,0-1.32,4h0a6.61,6.61,0,0,0,.16,1.35A5.29,5.29,0,0,0,172.51,249.5Z"/><path d="M180.4,236.91a6.35,6.35,0,0,0,.76,3.16V234A6.33,6.33,0,0,0,180.4,236.91Z"/><path d="M113.9,336.93c-7.42,0-7.43,11.53,0,11.53S121.33,336.93,113.9,336.93Z"/><path d="M427.38,0H0V370.5H111.2l3-1.31-.3-.16-1.7-.92-.07,0h0c.12-.18.25-.36.39-.53a8.52,8.52,0,0,0,1.53-2.33,2.21,2.21,0,0,0,.08-.31,44,44,0,0,0,.29-7.31c0-.44-.76-.88-1.6-1.76h0c1.58-.08,2.82-.22,4-.2h.54c1.49.09,2.09,1.07,2.33,2.55a29.82,29.82,0,0,1,.43,5.62,21.91,21.91,0,0,1-1.2,6.7h35.27c-.29-2.78-.57-5.57-.78-8.35-.26-3.58-.26-7.17-.38-10.76,0-.64-.07-1.27-.09-1.91-.11-3.37-.26-6.74-.26-10.11a.76.76,0,0,1,0-.14,2.38,2.38,0,0,1,.56-.94,7.68,7.68,0,0,0,.49-.64h-3.79l-.18-.57,1.07-.47,3.46-1.51h-6.22c0-.09,0-.18,0-.27l5.18-1.75-.24-.83h-3.89l-.06-.39,5.62-1.45-5.2.27h0l-.06-.3,1.69-.72-.06-.07c-1-1.14-1-1.61-.53-1.84s1.69-.22,2.18-.55l.06-.06a.54.54,0,0,0,.11-.11v0a.47.47,0,0,0,.06-.2s0,0,0-.05a.83.83,0,0,0,0-.25l-4.46.25h0l-.08-.3,3.59-1.25-2.84-.47h0l1.61-1.06.55-.37-4,.22h0a4.86,4.86,0,0,0,1.35-1.1c1.24-1.53.39-3.22.19-4.8L144,316.4h0l0-.39h0l1.15-.16.61-.08c0-.32.05-.65.06-1a1.39,1.39,0,0,0-.09-.66c-1.78-3.7-3.57-7.41-5.49-11-1.47-2.79-3.4-5.37-4.55-8.27-.43-1.08.71-2.84,1.27-4.24a.89.89,0,0,1,.21-.3c.28-.28.78-.55,1.41-1.07l-1.06-.35-3.62-1.21h0l5.69-.72,6.84-.86-1.12-.17c-1.14-.18-2.16-.36-3.13-.48-.52-.06-1-.11-1.55-.13a3.41,3.41,0,0,1-1.86-.57l-.11-.09a4,4,0,0,1-.36-.29,11.87,11.87,0,0,1-1.63-2.14,28.76,28.76,0,0,1,3.43-1.08c5.33-1,10.65-2,16-2.71,1.29-.18,2.72.64,4.09,1,.39.1.86.34,1.15.22,1.7-.73,2.7-.06,3.22,1.24a5.12,5.12,0,0,1,.19.59c1.09,4.12,2.53,8.15,2.19,12.6-.16,2,.81,4.14,1.23,6.22a9.21,9.21,0,0,1,.2,1.83c0,.64,0,1.29,0,1.93q0,4.16,0,8.31c0,1.58,0,3.16-.07,4.74,0,.37,0,.74,0,1.11-.11,4.66-.19,9.33-.31,14-.08,3.32-.18,6.64-.33,10a38.09,38.09,0,0,1-.67,5.1c-.25,1.37-.52,2.73-.73,4.1,0,.25-.06.5-.1.75a46,46,0,0,0,.44,15.08c.09.44.17.88.26,1.33.15.66.25,1.32.34,2H557V0ZM181.53,194.91h0ZM141,145.84a3.87,3.87,0,0,0,.27-.61c.08-.23.15-.46.21-.7a6.79,6.79,0,0,1,.49-1.4c.18-.35.38-.72.59-1.08a4.57,4.57,0,0,1,.87-1.09,2.25,2.25,0,0,1,.36-.27c2.72-1.53,3.9-1.85,4.77-.44l.06.11c.06.1.12.2.17.32a16.17,16.17,0,0,1,.86,2.61,22,22,0,0,1,.54,2.59,10.38,10.38,0,0,1,.12,1.9,11.45,11.45,0,0,0,.68,4.49,14.44,14.44,0,0,0,2.56,4.3l.27.33a21.35,21.35,0,0,1,1.39,1.71l.2.32.08.13a1.79,1.79,0,0,1-.28,2.15v0l-.08.11c-.34.46-.81,1-1.42,1.71a2.55,2.55,0,0,0-.42,1.16,4.74,4.74,0,0,1-.14.57c-.15.45-.31.91-.48,1.4l-.43,1.21-.3.84a2.36,2.36,0,0,1,.66.82c.39.86,0,1.86-1.49,2.88a4.38,4.38,0,0,0-1.17,2.24c-.91,2.89-2.33,3.37-4.71,2.29l-.1,0-.15-.07-.35-.17h0a8.09,8.09,0,0,1-3.57-3.39,10,10,0,0,1-1.05-4.31c0-.4-.24-.91-.08-1.18a6.3,6.3,0,0,0,1-3.6c0-2.35-1.21-4.63-1.58-7,0-.23-.07-.47-.09-.7s0-.36-.09-.47a8.29,8.29,0,0,1-.6-.74C136,151.17,139.43,148.7,141,145.84ZM154.68,254c0,.94-.22,1.87-.34,2.8h0l-.78-.72-.73-.68.53,2.46h0l-.6.3-1.1.55,1.29.63.87.43h0l-.12.49,0,.16h-4.13v.39l4.87.71-.16.69c-3.5.87-7.3.31-7.51-1.26-.76.28-1.47.57-2.2.82a11.41,11.41,0,0,1-1.19.34,6.49,6.49,0,0,1-1.06.15h0l6-3.6-.25-.48-.79.34-1.24.52-.79.34c-2.68-2.75-3.06-6.19-3.22-9.5a22.45,22.45,0,0,1,.19-3.8c.2-1.63.49-3.31.68-5.08h0l.88.16,2.4.42.91.16-2.3-1.21-4-2.1-.27-.06.06,0,.21.11,7.59,1.68.12-.24,0,0-7.28-2.54h0l.17-.51,1.57.45,1.52.44.88-2.82h0L146,236l1.4,2.14V228.07l.75-.11h0c.47,1.45,1,2.89,1.43,4.34.17.53.35,1.06.5,1.59,1.53,5.37,3.05,10.75,4.44,16.15a5.83,5.83,0,0,1,.13.81A23.14,23.14,0,0,1,154.68,254Zm.09,9.8q0,.37,0,.74H143.89C147.46,264,151.09,263.35,154.76,263.83Zm-20.22-77.47,3.15.82,3.71,1h0l0,0-.08,0-.23.1a7.57,7.57,0,0,1-.85.38l-.25.07a6.21,6.21,0,0,1-.82.21l-.25,0a5.14,5.14,0,0,1-.76.05c-.1,0-.19,0-.29,0a4.37,4.37,0,0,1-.66-.09,200.56,200.56,0,0,1-.87-.33,3.84,3.84,0,0,1-.5-.35c-.08-.06-.18-.11-.26-.18a4.41,4.41,0,0,1-1.13-1.64h0Zm-9.81-25.44h0l1.17.63.34.18-.45-4.23h0l.7-.09a9,9,0,0,1,.16,1.17,1.44,1.44,0,0,1,0,.21,2.85,2.85,0,0,0,.52,2.48l.07.08a3.39,3.39,0,0,0,1.55.82,3,3,0,0,1,1.79,1.26,4,4,0,0,1,.33,1.21q.05.36.09.72c0,.29.06.58.11.86h0a15.71,15.71,0,0,1-2.4-1.18c-.69-.5-1.37-1-2-1.55l-.31-.24-2.12-1.69Zm5.78,21.57-2.56-3.75-.13-.18h0l.56-.57,3.58,2.28c-.19-.56-.37-1.07-.55-1.57a25.59,25.59,0,0,1-.81-2.62c0-.08,0-.15-.06-.23s0,0,0-.08a18.56,18.56,0,0,1,1.95-1c1.33,3.36,3.64,4.08,6.86,2.85,1.12-.43,2.53-.07,4.06-.07l-.1,1.5-.12,1.84.41.19,2.4,1.08h0c-.95,1-2.65,1.48-3.42,2.43a1.93,1.93,0,0,0-.18.27,1.67,1.67,0,0,0-.09.16c-.32.74-.07,1.73,1.28,3.25h0l-.67,0-.57,0-.94,0,0,0-.05,0h0l-6.56-7-.89.66.92,1.41,1.57,2.4h0l-.68-.16a4.29,4.29,0,0,1-.8-.25,17.85,17.85,0,0,0-1.71-.66,12.57,12.57,0,0,0-12.9,2.43,15.08,15.08,0,0,0-1.33,1.33c-.21.24-.41.49-.61.75s-.26.32-.38.49q-.41.57-.8,1.2c-1.65,2.7-2.89,5.66-4.55,9h0C114.37,191.88,119.89,182.08,130.51,182.48ZM101.43,221h0l-.53-.25,3.32-6.92h0l.12.06.42.2h0ZM113.9,348.46c-7.43,0-7.42-11.53,0-11.53S121.32,348.46,113.9,348.46Zm-.52-142c-.74-1.44-1.64-2.8-2.46-4.2h0l-.31.53-2.19,4.84-.94,2.07-.72-.37h0l3.84-6.54.27-.6h0l0,.05c-.34-1.42-.59-2.87-1-4.25-.21-.63-.42-1.26-.63-1.89-.64-1.91-1.26-3.82-1.81-5.76-.15-.54-.3-1.08-.44-1.63h0q4.22,10.11,8.45,20.22a83.92,83.92,0,0,0,4.12,8.56,42.81,42.81,0,0,0,8.86,11.33c3.14,2.78,6.81,4.95,10.19,7.46.08.06.15.13.22.2s.19.16.28.25l.16.19.29.34.13.17.36.47.33.41h.11l-.07.05,0-.06h0a8.27,8.27,0,0,1-.92,0h-.07a.72.72,0,0,1-.28-.12c-1.74-1.36-3.54-2.66-5.32-4-4.9-3.61-9.69-7.34-12.78-12.82C118.26,216.51,115.94,211.41,113.39,206.45Zm24,57.56H124.15v-.12h13.26l0,.12h0Zm-14.56,1.93v-.32h31.94l0,.32Zm53.63,10.95-.06-.42-.25,0-.38-.07c-.12.71-.26,1.41-.38,2.11-.09.5-.18,1-.23,1.51a2.93,2.93,0,0,1-2,2.75,2.46,2.46,0,0,1-1.16,0c-.53-.12-1.39-.7-1.37-1a3.56,3.56,0,0,0-1.62-3.17c-.32-.26-.66-.51-1-.77a5.3,5.3,0,0,1-1.2-1.28c-1.12-1.68-1.07-3.77-1.27-5.77,0-.36-.08-.72-.14-1.08a23.1,23.1,0,0,0-.6-4.19,3.45,3.45,0,0,0-1.19-1.44,4.12,4.12,0,0,0-1-.55,2.84,2.84,0,0,1-1.69-1.17,1.35,1.35,0,0,1-.08-.86,3.94,3.94,0,0,1,.47-1.16,3.91,3.91,0,0,0,.44-1.42,4,4,0,0,0,0-.77s0-.06,0-.09a2.62,2.62,0,0,0-.12-.6,80.88,80.88,0,0,1-2.72-9.52c-1.6-7.07-2.55-14.28-4.14-21.34-.54-2.38-1.06-4.77-1.55-7.16-.6-2.92-1.16-5.86-1.62-8.8-.33-2.14.33-4.42.34-6.64,0-2.06-.47-4.13-.37-6.18h0a35,35,0,0,1,.66-4.67c.12-.65.24-1.3.35-2a8.28,8.28,0,0,1,5.87,6.23l.38,1.45c.3,1.14.59,2.29.85,3.44q.19.82.35,1.64a4,4,0,0,0,.29.94c-.62-2.86.69-6.21,3.93-7l.05-.17c-1-3.35.73-7.69,5.28-7.69l.31,0a6.73,6.73,0,0,0,4.27,5.34,5.37,5.37,0,0,0-1.28,2.61c-.2,1-.36,1.93-.52,2.89q-.3,1.79-.51,3.58c-.06.53-.14,1.07-.19,1.6-.14,1.4-.23,2.8-.28,4.2,0,.73,0,1.47-.05,2.2a73.35,73.35,0,0,0,.4,8.54c0,.2,0,.4.07.61l0,.15c0,.14,0,.27.06.41.28,2.25.64,4.51,1.12,6.77a5,5,0,0,0,.23.72,5.17,5.17,0,0,0,3.37,3.08,6.61,6.61,0,0,0,4.51-.18v7.63a5.75,5.75,0,0,0,.59,2.61l-.09.12a6.36,6.36,0,0,0,0,7.58l.12.15h-.27l-.11.12-1,1a6,6,0,0,1-4.08,1.69,4.63,4.63,0,0,1-1.42-.17,6.26,6.26,0,0,1-1.46.17,5.27,5.27,0,0,1-4.35-2l-.13-.1-1.49.08s0,0,0,.14a.26.26,0,0,0,0,.1,10.49,10.49,0,0,0,.52,1.32q.34.7.67,1.41c1.54,3.3,2.79,6.69,2.72,10.44,0,2.51,1.38,4.21,2.93,5.87h0l.13,0h0l.24-.08h0c0,.05,0,.1,0,.15a6.39,6.39,0,0,0,.26,1.09h0a5.85,5.85,0,0,0,.54,1.16h0a5.11,5.11,0,0,0,1.65,1.69,6.07,6.07,0,0,0-.36,1h0a6.58,6.58,0,0,0-.25,1.8Z"/></svg>